<?xml version="1.0" encoding="UTF-8" standalone="no"?>
<!DOCTYPE svg PUBLIC "-//W3C//DTD SVG 1.1//EN"
 "http://www.w3.org/Graphics/SVG/1.1/DTD/svg11.dtd">
<!-- Generated by graphviz version 2.43.0 (0)
 -->
<!-- Title: %3 Pages: 1 -->
<svg width="1164pt" height="332pt"
 viewBox="0.00 0.00 1163.88 332.00" xmlns="http://www.w3.org/2000/svg" xmlns:xlink="http://www.w3.org/1999/xlink">
<g id="graph0" class="graph" transform="scale(1 1) rotate(0) translate(4 328)">
<title>%3</title>
<polygon fill="white" stroke="transparent" points="-4,4 -4,-328 1159.88,-328 1159.88,4 -4,4"/>
<!-- [root] aws_dynamodb_table.terraform_locks (expand) -->
<g id="node1" class="node">
<title>[root] aws_dynamodb_table.terraform_locks (expand)</title>
<polygon fill="none" stroke="black" points="330.88,-108 45.88,-108 45.88,-72 330.88,-72 330.88,-108"/>
<text text-anchor="middle" x="188.38" y="-86.3" font-family="Times,serif" font-size="14.00">aws_dynamodb_table.terraform_locks</text>
</g>
<!-- [root] provider[&quot;registry.terraform.io/hashicorp/aws&quot;] -->
<g id="node6" class="node">
<title>[root] provider[&quot;registry.terraform.io/hashicorp/aws&quot;]</title>
<polygon fill="none" stroke="black" points="325.38,-36 0.12,-18 325.38,0 650.65,-18 325.38,-36"/>
<text text-anchor="middle" x="325.38" y="-14.3" font-family="Times,serif" font-size="14.00">provider[&quot;registry.terraform.io/hashicorp/aws&quot;]</text>
</g>
<!-- [root] aws_dynamodb_table.terraform_locks (expand)&#45;&gt;[root] provider[&quot;registry.terraform.io/hashicorp/aws&quot;] -->
<g id="edge1" class="edge">
<title>[root] aws_dynamodb_table.terraform_locks (expand)&#45;&gt;[root] provider[&quot;registry.terraform.io/hashicorp/aws&quot;]</title>
<path fill="none" stroke="black" d="M221.9,-71.88C241.27,-61.98 265.74,-49.47 286.03,-39.11"/>
<polygon fill="black" stroke="black" points="287.71,-42.18 295.02,-34.51 284.52,-35.95 287.71,-42.18"/>
</g>
<!-- [root] aws_s3_bucket.myhb&#45;s3&#45;state (expand) -->
<g id="node2" class="node">
<title>[root] aws_s3_bucket.myhb&#45;s3&#45;state (expand)</title>
<polygon fill="none" stroke="black" points="669.38,-108 441.38,-108 441.38,-72 669.38,-72 669.38,-108"/>
<text text-anchor="middle" x="555.38" y="-86.3" font-family="Times,serif" font-size="14.00">aws_s3_bucket.myhb&#45;s3&#45;state</text>
</g>
<!-- [root] aws_s3_bucket.myhb&#45;s3&#45;state (expand)&#45;&gt;[root] provider[&quot;registry.terraform.io/hashicorp/aws&quot;] -->
<g id="edge2" class="edge">
<title>[root] aws_s3_bucket.myhb&#45;s3&#45;state (expand)&#45;&gt;[root] provider[&quot;registry.terraform.io/hashicorp/aws&quot;]</title>
<path fill="none" stroke="black" d="M499.41,-71.97C463.92,-61.16 418.14,-47.23 382.44,-36.37"/>
<polygon fill="black" stroke="black" points="383.24,-32.95 372.66,-33.39 381.2,-39.65 383.24,-32.95"/>
</g>
<!-- [root] aws_s3_bucket_public_access_block.public_access (expand) -->
<g id="node3" class="node">
<title>[root] aws_s3_bucket_public_access_block.public_access (expand)</title>
<polygon fill="none" stroke="black" points="403.88,-180 32.88,-180 32.88,-144 403.88,-144 403.88,-180"/>
<text text-anchor="middle" x="218.38" y="-158.3" font-family="Times,serif" font-size="14.00">aws_s3_bucket_public_access_block.public_access</text>
</g>
<!-- [root] aws_s3_bucket_public_access_block.public_access (expand)&#45;&gt;[root] aws_s3_bucket.myhb&#45;s3&#45;state (expand) -->
<g id="edge3" class="edge">
<title>[root] aws_s3_bucket_public_access_block.public_access (expand)&#45;&gt;[root] aws_s3_bucket.myhb&#45;s3&#45;state (expand)</title>
<path fill="none" stroke="black" d="M300.39,-143.97C349.62,-133.74 412.35,-120.71 463.28,-110.13"/>
<polygon fill="black" stroke="black" points="464.22,-113.51 473.3,-108.05 462.79,-106.66 464.22,-113.51"/>
</g>
<!-- [root] aws_s3_bucket_server_side_encryption_configuration.default (expand) -->
<g id="node4" class="node">
<title>[root] aws_s3_bucket_server_side_encryption_configuration.default (expand)</title>
<polygon fill="none" stroke="black" points="872.38,-180 422.38,-180 422.38,-144 872.38,-144 872.38,-180"/>
<text text-anchor="middle" x="647.38" y="-158.3" font-family="Times,serif" font-size="14.00">aws_s3_bucket_server_side_encryption_configuration.default</text>
</g>
<!-- [root] aws_s3_bucket_server_side_encryption_configuration.default (expand)&#45;&gt;[root] aws_s3_bucket.myhb&#45;s3&#45;state (expand) -->
<g id="edge4" class="edge">
<title>[root] aws_s3_bucket_server_side_encryption_configuration.default (expand)&#45;&gt;[root] aws_s3_bucket.myhb&#45;s3&#45;state (expand)</title>
<path fill="none" stroke="black" d="M624.64,-143.7C612.94,-134.8 598.52,-123.82 585.87,-114.2"/>
<polygon fill="black" stroke="black" points="587.94,-111.37 577.86,-108.1 583.7,-116.94 587.94,-111.37"/>
</g>
<!-- [root] aws_s3_bucket_versioning.enabled (expand) -->
<g id="node5" class="node">
<title>[root] aws_s3_bucket_versioning.enabled (expand)</title>
<polygon fill="none" stroke="black" points="1155.88,-180 890.88,-180 890.88,-144 1155.88,-144 1155.88,-180"/>
<text text-anchor="middle" x="1023.38" y="-158.3" font-family="Times,serif" font-size="14.00">aws_s3_bucket_versioning.enabled</text>
</g>
<!-- [root] aws_s3_bucket_versioning.enabled (expand)&#45;&gt;[root] aws_s3_bucket.myhb&#45;s3&#45;state (expand) -->
<g id="edge5" class="edge">
<title>[root] aws_s3_bucket_versioning.enabled (expand)&#45;&gt;[root] aws_s3_bucket.myhb&#45;s3&#45;state (expand)</title>
<path fill="none" stroke="black" d="M909.49,-143.97C839.85,-133.55 750.74,-120.22 679.33,-109.54"/>
<polygon fill="black" stroke="black" points="679.78,-106.07 669.37,-108.05 678.75,-112.99 679.78,-106.07"/>
</g>
<!-- [root] provider[&quot;registry.terraform.io/hashicorp/aws&quot;] (close) -->
<g id="node7" class="node">
<title>[root] provider[&quot;registry.terraform.io/hashicorp/aws&quot;] (close)</title>
<ellipse fill="none" stroke="black" cx="432.38" cy="-234" rx="291.65" ry="18"/>
<text text-anchor="middle" x="432.38" y="-230.3" font-family="Times,serif" font-size="14.00">[root] provider[&quot;registry.terraform.io/hashicorp/aws&quot;] (close)</text>
</g>
<!-- [root] provider[&quot;registry.terraform.io/hashicorp/aws&quot;] (close)&#45;&gt;[root] aws_dynamodb_table.terraform_locks (expand) -->
<g id="edge6" class="edge">
<title>[root] provider[&quot;registry.terraform.io/hashicorp/aws&quot;] (close)&#45;&gt;[root] aws_dynamodb_table.terraform_locks (expand)</title>
<path fill="none" stroke="black" d="M246.72,-220.08C146,-211.13 38.89,-197.65 23.38,-180 -4.98,-147.73 39.77,-125.08 89.78,-110.7"/>
<polygon fill="black" stroke="black" points="90.78,-114.06 99.49,-108.03 88.92,-107.31 90.78,-114.06"/>
</g>
<!-- [root] provider[&quot;registry.terraform.io/hashicorp/aws&quot;] (close)&#45;&gt;[root] aws_s3_bucket_public_access_block.public_access (expand) -->
<g id="edge7" class="edge">
<title>[root] provider[&quot;registry.terraform.io/hashicorp/aws&quot;] (close)&#45;&gt;[root] aws_s3_bucket_public_access_block.public_access (expand)</title>
<path fill="none" stroke="black" d="M381.12,-216.23C350.87,-206.34 312.36,-193.74 280.4,-183.29"/>
<polygon fill="black" stroke="black" points="281.3,-179.9 270.71,-180.12 279.12,-186.55 281.3,-179.9"/>
</g>
<!-- [root] provider[&quot;registry.terraform.io/hashicorp/aws&quot;] (close)&#45;&gt;[root] aws_s3_bucket_server_side_encryption_configuration.default (expand) -->
<g id="edge8" class="edge">
<title>[root] provider[&quot;registry.terraform.io/hashicorp/aws&quot;] (close)&#45;&gt;[root] aws_s3_bucket_server_side_encryption_configuration.default (expand)</title>
<path fill="none" stroke="black" d="M483.88,-216.23C514.28,-206.34 552.96,-193.74 585.07,-183.29"/>
<polygon fill="black" stroke="black" points="586.39,-186.54 594.81,-180.12 584.22,-179.88 586.39,-186.54"/>
</g>
<!-- [root] provider[&quot;registry.terraform.io/hashicorp/aws&quot;] (close)&#45;&gt;[root] aws_s3_bucket_versioning.enabled (expand) -->
<g id="edge9" class="edge">
<title>[root] provider[&quot;registry.terraform.io/hashicorp/aws&quot;] (close)&#45;&gt;[root] aws_s3_bucket_versioning.enabled (expand)</title>
<path fill="none" stroke="black" d="M561.58,-217.81C648.77,-207.54 766.72,-193.62 880.77,-180.07"/>
<polygon fill="black" stroke="black" points="881.21,-183.54 890.73,-178.89 880.39,-176.59 881.21,-183.54"/>
</g>
<!-- [root] root -->
<g id="node8" class="node">
<title>[root] root</title>
<ellipse fill="none" stroke="black" cx="432.38" cy="-306" rx="58.49" ry="18"/>
<text text-anchor="middle" x="432.38" y="-302.3" font-family="Times,serif" font-size="14.00">[root] root</text>
</g>
<!-- [root] root&#45;&gt;[root] provider[&quot;registry.terraform.io/hashicorp/aws&quot;] (close) -->
<g id="edge10" class="edge">
<title>[root] root&#45;&gt;[root] provider[&quot;registry.terraform.io/hashicorp/aws&quot;] (close)</title>
<path fill="none" stroke="black" d="M432.38,-287.7C432.38,-279.98 432.38,-270.71 432.38,-262.11"/>
<polygon fill="black" stroke="black" points="435.88,-262.1 432.38,-252.1 428.88,-262.1 435.88,-262.1"/>
</g>
</g>
</svg>
